<?xml version="1.0" standalone="no"?>
<!DOCTYPE svg PUBLIC "-//W3C//DTD SVG 20010904//EN"
 "http://www.w3.org/TR/2001/REC-SVG-20010904/DTD/svg10.dtd">
<svg version="1.0" xmlns="http://www.w3.org/2000/svg"
 width="564.000000pt" height="548.000000pt" viewBox="0 0 564.000000 548.000000"
 preserveAspectRatio="xMidYMid meet">
<metadata>
Created by potrace 1.16, written by Peter Selinger 2001-2019
</metadata>
<g transform="translate(0.000000,548.000000) scale(0.100000,-0.100000)"
fill="#000000" stroke="none">
<path d="M2685 4514 c-181 -19 -409 -69 -600 -134 -49 -16 -110 -30 -134 -30
-80 0 -171 -61 -171 -115 0 -20 -37 -65 -54 -65 -4 0 -20 9 -34 20 -22 18 -27
19 -34 5 -5 -8 -5 -31 1 -52 l11 -38 -100 -100 c-55 -55 -130 -140 -167 -189
-38 -49 -73 -91 -79 -93 -10 -3 -64 114 -64 139 0 12 -29 37 -44 38 -5 0 -6
-38 -2 -87 6 -71 12 -95 33 -125 29 -43 27 -65 -13 -123 -35 -52 -106 -206
-99 -213 3 -4 10 0 15 8 14 21 12 -3 -1 -37 -6 -15 -19 -62 -29 -103 l-17 -75
-31 65 c-37 76 -52 147 -52 241 0 37 -4 70 -9 74 -5 3 -21 0 -35 -6 -24 -11
-26 -17 -26 -74 l0 -62 -30 5 c-37 5 -39 -10 -6 -48 13 -16 26 -47 30 -69 3
-22 14 -55 25 -73 10 -18 24 -51 31 -73 7 -22 30 -74 51 -115 39 -75 39 -77
44 -215 4 -149 28 -292 71 -434 14 -45 24 -85 21 -87 -2 -2 -28 8 -57 22 -30
14 -65 30 -78 35 -13 5 -26 18 -29 29 -8 31 -23 23 -20 -10 2 -16 12 -39 22
-51 15 -16 16 -22 6 -28 -24 -15 5 -51 42 -51 18 0 59 -13 92 -29 61 -28 61
-29 78 -92 10 -35 42 -115 72 -176 70 -143 70 -142 5 -123 -46 13 -65 6 -80
-30 -7 -17 -17 -30 -22 -30 -5 0 -6 -5 -3 -10 4 -6 23 -7 44 -4 47 8 179 -31
202 -59 15 -18 15 -23 -2 -67 -23 -60 -16 -112 21 -149 15 -14 36 -42 46 -61
l18 -35 6 35 c8 42 21 69 48 94 20 18 21 17 54 -20 86 -100 165 -157 361 -259
254 -132 525 -195 830 -195 183 0 324 18 488 61 164 42 277 92 387 168 15 10
52 35 82 55 76 50 240 210 335 327 11 13 38 47 61 74 79 96 198 313 248 454
51 140 126 495 126 591 0 50 4 60 31 86 17 16 37 41 45 56 32 61 7 159 -54
209 -15 13 -31 29 -35 36 -11 17 75 127 136 172 59 45 85 88 117 191 25 81 25
80 -3 80 -29 0 -47 -19 -82 -89 -14 -29 -51 -77 -81 -106 -30 -29 -54 -56 -54
-60 0 -4 7 -2 15 5 8 7 15 10 15 7 0 -11 -83 -127 -87 -123 -6 6 15 46 37 71
15 17 17 29 10 78 -5 31 -17 72 -27 90 -21 35 -85 77 -120 77 -17 0 -29 12
-47 48 -13 26 -31 56 -39 67 -13 17 -13 23 0 50 9 16 32 44 51 62 20 18 34 35
31 37 -3 3 -29 -3 -57 -14 -78 -30 -84 -28 -132 46 -38 60 -41 67 -30 94 17
41 38 45 71 14 19 -18 38 -26 64 -26 43 0 69 21 100 82 29 57 78 105 99 97 11
-5 16 0 16 14 0 23 -68 58 -113 59 -63 0 -144 -53 -167 -111 -7 -16 -16 -29
-21 -29 -15 0 -10 133 6 160 20 35 18 42 -7 35 -31 -9 -58 -42 -58 -71 0 -19
-61 -169 -75 -183 -3 -2 -28 18 -57 45 -29 27 -90 76 -136 109 l-83 60 26 18
c31 23 31 37 -1 60 -22 17 -27 17 -42 4 -40 -34 -61 -39 -92 -20 -21 12 -32
28 -36 53 -4 19 -11 40 -16 47 -5 6 -8 20 -6 30 5 29 -25 21 -40 -10 -20 -41
-34 -42 -86 -6 -72 48 -303 125 -448 148 -122 20 -346 33 -423 25z m467 -65
c29 -7 98 -26 153 -45 l100 -32 -37 -16 c-36 -16 -72 -53 -83 -85 -5 -17 -9
-17 -77 0 -39 10 -121 26 -182 35 -120 19 -170 39 -71 29 33 -4 65 -8 72 -10
7 -2 15 0 18 5 3 5 -9 11 -27 13 -28 3 -26 4 12 6 35 2 41 4 25 11 -11 5 -38
10 -60 11 l-40 2 40 6 c37 6 34 8 -48 21 -52 8 -84 17 -79 22 6 6 55 1 122
-11 63 -12 115 -19 118 -17 2 3 -13 8 -34 11 -22 4 -55 12 -74 18 -19 6 -64
14 -100 18 -46 5 -28 6 60 3 76 -2 148 -9 185 -19 90 -26 129 -34 133 -30 4 3
-81 30 -163 51 -63 16 -34 18 37 3z m-353 -61 c12 -24 33 -63 45 -88 45 -88
204 -366 279 -490 42 -68 75 -126 73 -128 -6 -5 -64 26 -71 38 -4 6 -37 26
-74 45 l-68 34 -66 128 c-112 218 -135 258 -145 258 -15 0 -57 -81 -178 -344
-105 -226 -299 -618 -315 -636 -5 -5 -9 0 -9 12 0 12 5 25 10 28 20 12 -1 24
-26 15 -55 -21 -56 -13 -4 91 28 55 75 155 105 222 29 67 90 199 135 292 121
253 205 433 230 495 38 93 45 96 79 28z m-204 12 c-16 -5 -63 -14 -103 -20
-40 -7 -71 -14 -68 -17 3 -3 31 -1 63 5 107 20 173 25 173 13 0 -7 -21 -11
-52 -12 -29 0 -91 -9 -138 -19 -90 -19 -90 -26 1 -11 30 5 83 12 119 15 78 6
44 -5 -95 -29 -213 -38 -534 -174 -651 -277 -19 -17 -36 -29 -38 -27 -2 2 -10
18 -19 34 -14 28 -14 33 2 54 16 21 23 23 63 17 36 -5 49 -3 71 14 14 11 29
29 32 40 4 13 15 20 31 20 29 0 42 25 26 51 -18 28 32 62 148 99 81 27 103 31
113 20 10 -10 8 -11 -9 -6 -11 3 -28 0 -40 -9 -10 -8 -14 -15 -7 -15 6 0 14 4
17 9 3 4 16 6 29 4 13 -3 61 7 106 21 49 15 92 24 107 20 13 -3 24 -2 24 2 0
5 28 10 63 11 48 1 55 0 32 -7z m-225 -159 c0 -5 -6 -11 -13 -14 -12 -5 -167
-113 -177 -124 -10 -12 97 52 143 85 42 30 77 37 77 15 0 -5 -26 -28 -57 -53
-32 -25 -101 -80 -153 -123 -158 -129 -171 -139 -176 -135 -2 3 5 17 17 32 41
52 11 37 -36 -18 -52 -61 -96 -82 -148 -70 -17 4 -36 7 -40 6 -5 -2 -7 5 -5
15 3 13 12 17 32 16 23 -2 26 0 16 13 -11 12 -7 14 25 14 34 0 36 2 24 16 -12
15 -10 16 25 12 l39 -4 -23 18 c-28 23 -41 23 -71 0 -29 -22 -59 -34 -59 -24
0 19 35 54 67 67 47 20 66 19 111 -4 32 -16 45 -18 85 -9 56 12 64 32 10 24
-27 -4 -53 1 -91 18 l-54 23 39 30 c48 38 159 95 283 144 104 42 110 43 110
30z m900 -75 c179 -91 191 -99 184 -116 -3 -8 -8 -51 -11 -96 l-6 -80 -46 49
c-35 38 -45 55 -42 76 4 34 7 37 26 21 8 -7 15 -8 15 -2 0 5 -7 15 -15 22 -10
8 -13 21 -9 33 6 18 3 19 -27 13 -30 -5 -44 1 -116 52 -76 53 -101 82 -70 82
6 0 59 -24 117 -54z m-844 2 c7 -11 -23 -42 -115 -121 -75 -63 -37 -41 50 29
53 42 87 63 97 59 17 -6 -20 -48 -253 -279 -71 -71 -112 -115 -90 -97 22 18
113 105 202 194 125 124 165 159 174 150 10 -10 -2 -29 -48 -85 -33 -40 -68
-86 -78 -103 l-17 -30 28 31 c32 33 112 128 131 153 6 9 14 13 17 10 6 -5
-175 -329 -253 -454 -44 -70 -63 -105 -58 -105 10 0 93 132 207 332 69 119
129 214 133 211 4 -3 4 -10 -1 -16 -7 -10 -116 -235 -198 -412 -8 -16 -32 -75
-54 -129 -47 -117 -54 -127 -74 -101 -14 19 -15 19 -34 2 -20 -18 -21 -17 -75
71 -31 50 -68 113 -84 141 -25 46 -31 51 -55 45 -16 -3 -28 -1 -28 4 0 13 -36
52 -48 52 -6 0 -25 -32 -44 -72 -18 -39 -49 -103 -69 -142 -35 -68 -38 -71
-70 -68 l-34 2 28 -15 c30 -17 33 -25 16 -42 -8 -8 -21 1 -46 35 -52 68 -50
68 -75 46 l-22 -19 18 30 c10 17 29 41 41 55 34 37 117 169 139 220 11 25 21
46 22 48 1 2 12 -2 25 -8 31 -17 90 2 137 43 20 18 64 52 97 77 33 24 85 64
115 90 113 95 221 180 230 180 5 0 12 -5 16 -12z m1438 -69 c14 -11 30 -18 35
-15 8 5 111 -68 111 -78 0 -1 -13 -1 -30 2 -17 2 -47 -4 -73 -17 -54 -26 -89
-27 -112 -1 -10 11 -15 20 -10 20 4 0 2 7 -5 15 -7 8 -17 15 -23 15 -6 0 -2
-7 9 -15 10 -8 14 -15 8 -15 -16 0 -34 24 -26 35 8 12 44 16 37 5 -3 -4 3 -14
13 -21 15 -13 16 -12 3 4 -16 20 -9 22 22 6 12 -6 7 2 -13 19 -19 17 -30 31
-23 32 6 0 15 -4 18 -10 3 -5 16 -15 28 -21 14 -6 9 2 -13 21 -30 27 -32 31
-12 27 12 -3 20 -1 16 4 -10 16 13 10 40 -12z m-555 -80 c-12 -23 -8 -75 12
-161 12 -54 12 -60 -7 -85 -19 -26 -64 -44 -64 -27 0 5 15 24 33 43 l32 34
-37 -22 c-48 -29 -50 -11 -6 50 17 24 22 36 11 27 -26 -24 -46 -23 -39 0 4 10
8 41 10 67 3 38 10 54 30 72 34 29 40 29 25 2z m-1704 -81 c-50 -51 -65 -70
-35 -42 32 29 65 51 79 52 23 1 22 -1 -15 -41 -22 -23 -50 -56 -64 -72 -22
-28 -21 -27 8 3 19 18 36 31 40 28 3 -4 -10 -22 -28 -41 -19 -19 -31 -35 -28
-35 4 0 30 24 59 53 60 61 55 50 -27 -53 -100 -125 -144 -189 -163 -233 l-18
-42 -12 40 c-7 22 -19 57 -28 77 -15 36 -15 38 22 105 35 65 94 138 103 128 3
-2 45 34 95 80 50 47 93 85 96 85 3 0 -35 -42 -84 -92z m1212 23 c14 -8 15
-11 3 -11 -9 -1 -6 -5 8 -10 32 -13 28 -32 -5 -25 -23 4 -24 4 -8 -4 11 -5 29
-12 40 -16 16 -5 17 -8 5 -15 -13 -8 -12 -10 3 -10 32 0 18 -20 -15 -21 -22
-1 -26 -3 -13 -6 11 -3 31 -10 45 -15 l25 -10 -35 -13 c-19 -8 -28 -14 -20
-14 9 -1 26 -9 39 -18 23 -16 23 -17 5 -23 -16 -6 -13 -8 13 -14 18 -4 36 -12
39 -18 4 -6 -1 -8 -12 -5 -11 4 -32 9 -49 12 -27 5 -26 3 10 -14 22 -11 49
-22 60 -25 10 -3 17 -8 13 -11 -3 -3 -18 -1 -33 5 -15 6 -30 8 -32 6 -3 -3 14
-10 36 -17 23 -7 46 -18 52 -26 14 -16 12 -16 -44 3 -71 24 -79 11 -9 -14 79
-29 89 -45 14 -22 -75 23 -118 33 -111 26 3 -3 45 -17 94 -31 84 -25 121 -42
111 -52 -2 -3 -14 0 -25 6 -26 15 -170 51 -196 50 -11 0 21 -14 70 -30 50 -16
95 -35 100 -42 6 -7 27 -20 49 -30 57 -26 36 -32 -31 -9 -32 11 -92 23 -133
26 -83 7 -75 -1 30 -30 36 -10 96 -31 134 -46 115 -47 122 -63 44 -98 -79 -35
-131 -71 -119 -83 7 -7 24 -1 51 19 58 42 113 74 128 74 28 0 9 -20 -40 -44
-72 -33 -80 -40 -72 -59 5 -14 9 -13 31 7 40 37 103 70 103 54 0 -8 -18 -22
-40 -32 -22 -10 -40 -23 -40 -31 0 -7 -6 -16 -12 -18 -7 -3 -3 -6 10 -6 12 -1
22 3 22 8 0 5 16 19 35 31 41 26 70 17 34 -11 -13 -10 -20 -21 -16 -25 4 -4
13 -2 19 4 15 15 28 15 28 1 0 -7 8 -18 18 -26 19 -16 22 -16 -48 2 -14 4 0
-5 30 -20 30 -15 50 -29 43 -32 -7 -2 -21 1 -32 7 -12 6 -21 8 -21 6 0 -3 18
-15 39 -26 40 -20 57 -37 48 -46 -3 -3 -16 1 -29 10 -23 15 -76 36 -233 93
-38 14 -97 27 -130 29 l-60 3 69 -14 c84 -18 216 -66 210 -77 -3 -4 13 -15 35
-24 23 -9 41 -20 41 -25 0 -11 -104 28 -179 65 -39 20 -72 28 -124 31 l-72 4
61 -9 c64 -9 198 -66 189 -80 -3 -4 3 -6 13 -3 22 5 141 -46 161 -70 18 -23 9
-21 -49 8 -71 36 -62 23 10 -16 54 -28 82 -61 66 -76 -3 -4 1 -17 9 -30 9 -13
11 -23 6 -23 -15 0 -34 29 -28 44 3 8 -4 23 -16 34 -31 27 -100 72 -112 72 -5
0 17 -16 49 -36 39 -25 54 -40 47 -47 -7 -7 -31 4 -76 33 -118 77 -163 88
-365 86 -200 -2 -233 -10 -295 -67 -46 -42 -55 -46 -55 -25 0 21 78 84 114 92
17 4 25 9 19 11 -7 3 -27 -3 -45 -12 -38 -20 -78 -27 -78 -15 0 8 35 43 75 76
19 15 18 15 -7 0 -61 -35 -78 -49 -78 -61 0 -8 -6 -20 -12 -27 -7 -7 -14 -22
-16 -33 -5 -35 -52 -123 -88 -166 -19 -23 -38 -47 -42 -54 -9 -15 -111 -79
-117 -73 -3 3 17 19 44 36 26 17 55 39 62 49 8 9 -6 2 -30 -15 -47 -34 -82
-44 -41 -12 16 13 20 20 10 20 -8 0 12 27 45 62 l60 62 -50 -38 c-36 -27 -25
-13 40 50 85 83 83 84 -14 6 -22 -19 -41 -29 -41 -24 0 5 7 15 15 22 8 7 12
16 9 22 -11 18 29 61 104 109 92 59 89 66 -5 9 -36 -22 -69 -38 -72 -34 -8 8
23 30 97 66 34 17 62 32 62 34 0 5 -44 -12 -81 -31 -17 -9 -36 -14 -42 -12 -7
2 26 23 73 45 58 29 74 40 51 35 -19 -3 -50 -17 -69 -30 -39 -26 -81 -33 -48
-8 11 8 24 15 29 15 4 0 6 3 4 8 -3 4 4 23 14 42 18 32 19 33 14 8 -8 -41 20
-36 41 7 17 37 33 46 30 18 -2 -32 29 -23 52 15 13 20 50 66 84 102 33 36 70
76 82 90 19 22 19 23 1 10 -11 -8 -22 -18 -25 -21 -3 -3 -27 -19 -55 -34 -57
-33 -51 -18 19 48 79 74 -12 26 -104 -55 -24 -22 -55 -55 -69 -74 -13 -19 -26
-32 -29 -29 -5 4 37 63 68 95 8 9 26 29 40 45 l25 29 -30 -21 c-16 -12 -45
-36 -63 -54 -18 -17 -35 -29 -38 -27 -3 3 18 28 45 56 40 38 64 53 111 66 33
10 69 14 80 11 12 -4 20 -2 20 5 0 8 -26 9 -87 4 -103 -8 -103 5 0 22 l72 12
-70 1 c-49 1 -66 4 -55 11 8 5 32 10 52 10 20 0 39 3 41 8 3 4 -18 5 -45 3
-35 -2 -48 0 -44 8 4 6 19 11 34 12 l27 1 -25 8 c-31 10 -31 9 55 25 l70 12
-57 2 c-87 2 -70 21 20 23 l77 2 -72 3 c-58 3 -71 7 -66 18 3 10 22 16 57 17
l51 2 -47 3 c-51 4 -62 18 -25 33 12 5 16 9 9 9 -27 2 0 21 29 21 16 0 29 5
29 10 0 6 -11 10 -25 10 -31 0 -33 20 -2 21 16 1 17 3 5 6 -13 3 -15 9 -8 21
10 18 43 95 53 124 5 14 12 15 36 8 16 -4 38 -13 48 -19z m681 -151 c10 0 11
-16 7 -62 -3 -35 -8 -95 -11 -135 l-6 -72 -70 44 c-49 31 -78 56 -94 85 -19
33 -21 42 -9 46 8 3 30 26 50 50 33 40 35 45 21 60 -9 8 -16 21 -16 28 0 8 -3
29 -6 47 l-7 34 65 -62 c35 -35 69 -63 76 -63z m337 23 c61 -45 122 -92 136
-105 l27 -23 -19 -90 c-10 -49 -19 -108 -19 -129 0 -68 -20 -27 -36 74 -19
119 -25 128 -58 94 -20 -20 -21 -45 -1 -38 12 5 15 -2 15 -27 l-1 -34 -14 25
c-8 14 -15 21 -15 15 0 -5 -12 3 -25 19 -21 27 -26 29 -49 18 -14 -6 -26 -11
-27 -9 0 1 -3 22 -6 47 -3 25 -10 53 -15 64 -9 17 -15 13 -64 -40 -48 -53 -53
-57 -53 -34 -1 27 27 120 54 185 10 22 21 50 26 63 11 27 2 32 144 -75z
m-2135 -30 c-14 -43 -85 -154 -146 -228 -23 -27 -55 -76 -71 -109 l-30 -58
-13 31 c-12 30 -10 37 24 104 40 80 94 155 182 254 60 68 74 70 54 6z m2024
-158 c8 -50 17 -60 44 -46 30 16 81 -42 79 -90 -1 -32 -4 -36 -24 -35 -28 1
-28 3 -6 30 15 18 14 18 -8 -2 -14 -12 -28 -20 -31 -17 -3 3 -21 -12 -40 -33
-46 -51 -69 -65 -45 -29 21 32 14 54 -11 35 -14 -10 -15 -10 -5 2 14 15 46 23
37 9 -11 -19 3 -8 32 23 16 18 20 26 9 17 -24 -19 -55 -31 -55 -22 0 4 10 19
23 33 12 14 0 4 -27 -23 -26 -26 -50 -46 -52 -44 -2 2 11 23 29 47 17 24 25
40 17 35 -8 -5 -18 -10 -22 -10 -3 0 -10 -4 -15 -9 -5 -6 -2 -6 7 -1 8 5 12 4
7 0 -4 -5 -14 -10 -23 -11 -13 -2 -13 1 1 23 18 28 13 42 -9 24 -11 -9 -15 -8
-20 5 -3 8 -6 19 -6 24 0 15 91 120 100 115 4 -2 11 -25 14 -50z m-1792 5 c14
-24 22 -29 40 -25 20 5 28 -3 57 -52 19 -32 55 -88 81 -124 43 -59 46 -67 33
-85 -8 -10 -18 -18 -21 -17 -4 1 -25 -30 -47 -68 -22 -38 -43 -69 -46 -69 -3
0 8 30 26 68 18 37 28 70 23 73 -5 3 -6 13 -2 23 4 11 2 16 -7 14 -7 -2 -18 7
-24 20 -17 39 -31 21 -27 -37 0 -16 -35 -91 -43 -91 -5 0 10 42 25 71 18 32 1
21 -20 -13 -27 -45 -25 -20 4 47 32 72 24 71 -12 -2 -36 -70 -50 -56 -16 16
33 72 30 77 -7 13 -49 -86 -47 -55 5 73 14 34 14 37 1 21 -8 -11 -15 -23 -15
-27 0 -13 -42 -80 -47 -75 -2 2 3 18 11 35 9 16 16 34 16 38 -1 4 -10 -9 -21
-29 -18 -35 -38 -54 -26 -25 3 6 13 29 22 50 9 22 12 36 6 33 -5 -3 -11 -1
-13 5 -2 6 -9 -2 -16 -17 -11 -27 -11 -27 3 -10 22 29 18 2 -7 -47 -12 -24
-23 -36 -26 -29 -2 8 1 19 7 25 6 6 11 16 11 22 0 5 -11 -3 -25 -20 -30 -37
-32 -27 -5 25 28 54 17 50 -16 -5 -14 -25 -29 -44 -31 -41 -6 5 119 266 127
266 3 0 13 -14 22 -30z m1607 -53 c6 -8 9 -22 5 -30 -3 -9 4 -29 15 -46 12
-16 21 -35 21 -43 0 -8 12 -39 27 -69 21 -41 28 -70 29 -124 2 -66 2 -67 -5
-20 l-8 50 -2 -45 c-2 -35 -4 -41 -11 -25 -5 11 -10 40 -11 65 -1 25 -4 35 -6
23 -2 -13 -8 -23 -12 -23 -10 0 -31 46 -31 69 0 9 -16 43 -35 75 -19 32 -35
60 -35 63 0 14 25 -16 60 -70 21 -34 43 -61 47 -59 4 2 13 -14 20 -35 6 -21
12 -30 12 -20 1 24 -24 82 -59 137 -16 25 -31 56 -33 68 -2 12 -6 25 -10 28
-4 4 -6 32 -6 63 1 52 2 53 8 19 4 -20 13 -43 20 -51z m-307 -17 c12 -16 136
-266 163 -329 18 -42 53 -111 79 -154 25 -43 46 -80 46 -81 0 -2 23 -44 50
-95 28 -51 50 -104 50 -119 -1 -21 -3 -23 -10 -12 -5 9 -24 32 -42 51 -18 20
-41 59 -51 87 -14 40 -23 52 -38 52 -15 0 -19 -5 -16 -17 10 -34 18 -93 13
-93 -2 0 -25 44 -51 98 -88 181 -147 297 -179 352 -18 30 -56 99 -85 153 -51
96 -52 97 -30 106 23 8 95 9 101 1z m955 -85 c17 -23 43 -67 57 -99 28 -62 68
-187 63 -192 -4 -4 -113 164 -123 189 -3 9 -11 17 -16 17 -12 0 -68 -58 -68
-71 0 -23 -20 -6 -21 19 -1 15 -3 41 -5 57 -4 27 13 150 22 167 5 9 52 -36 91
-87z m76 -6 c3 -12 10 -18 17 -14 6 4 20 -15 34 -47 12 -29 28 -64 34 -78 l11
-25 -4 25 c-2 14 -11 45 -19 69 -21 59 -21 62 13 45 33 -16 57 -65 46 -91 -5
-10 -7 -22 -6 -28 2 -5 6 -30 10 -55 5 -40 10 -46 39 -55 17 -5 32 -13 32 -18
0 -32 -68 -107 -98 -107 -5 0 -20 37 -31 83 -26 97 -85 255 -106 283 -19 26
-19 34 4 34 11 0 21 -9 24 -21z m-229 -74 c-3 -20 -2 -35 3 -35 15 0 33 -71
33 -126 0 -37 3 -45 11 -34 8 11 9 3 6 -32 -2 -26 -1 -45 4 -42 16 9 10 -40
-13 -104 -12 -35 -25 -57 -29 -51 -4 7 -1 30 7 52 15 43 18 76 4 40 -11 -27
-35 -31 -27 -5 3 9 14 38 24 64 16 43 16 49 1 80 l-16 33 0 -38 c1 -21 -4 -43
-10 -49 -9 -9 -12 -2 -12 29 0 24 7 48 15 57 8 8 15 25 15 38 l-1 23 -15 -25
c-14 -24 -14 -22 -9 30 5 40 3 51 -4 40 -9 -12 -11 -9 -11 15 0 40 10 75 22
75 5 0 6 -15 2 -35z m-2366 -21 c24 -32 31 -51 27 -67 -5 -16 1 -12 25 16 17
20 35 37 40 37 11 0 20 -30 29 -95 6 -43 4 -58 -10 -76 -21 -28 -36 -20 -19
10 18 34 5 24 -29 -24 -46 -65 -58 -56 -16 13 33 53 20 45 -24 -16 -35 -48
-32 -16 4 48 20 35 33 65 31 67 -3 3 -11 -4 -18 -16 -16 -25 -30 -28 -22 -3 4
9 -3 3 -14 -14 -29 -45 -47 -53 -27 -13 l16 34 -21 -27 c-12 -15 -26 -25 -33
-22 -7 2 -21 -10 -31 -26 -10 -17 -20 -29 -23 -26 -3 3 5 22 18 43 52 86 54
90 25 58 -20 -23 -25 -25 -20 -10 4 15 -1 12 -20 -10 -29 -34 -33 -28 -11 15
8 16 12 35 9 43 -4 12 62 105 76 106 3 0 20 -20 38 -45z m-478 -113 c-21 -73
-27 -108 -20 -120 8 -14 9 -14 10 4 0 32 42 165 51 165 12 0 11 -11 -6 -60 -8
-24 -13 -45 -11 -47 2 -2 14 25 26 61 12 36 26 69 32 73 7 4 9 1 6 -8 -14 -38
-39 -132 -35 -135 2 -2 14 30 26 71 12 41 26 75 32 75 6 0 8 -9 4 -22 -7 -23
-7 -23 9 -3 18 24 22 4 5 -27 -6 -12 -13 -35 -14 -52 -2 -17 -3 -37 -4 -43 -1
-7 -7 -13 -15 -13 -8 0 -27 -5 -43 -12 -15 -6 -31 -11 -35 -10 -4 1 -15 -23
-24 -53 -19 -61 -29 -67 -46 -31 -8 20 -6 44 12 118 22 92 56 185 65 176 2 -2
-9 -50 -25 -107z m3013 22 c12 -18 45 -66 73 -107 66 -94 72 -111 42 -127 -13
-7 -29 -14 -37 -15 -8 -2 -17 -6 -20 -11 -4 -4 -22 -23 -42 -40 -33 -31 -35
-32 -35 -10 0 12 13 32 28 45 15 13 28 29 28 35 0 6 -12 -1 -27 -15 -23 -21
-30 -24 -40 -13 -9 10 -4 21 20 51 l31 39 -32 -29 c-18 -17 -32 -25 -32 -20 0
6 11 21 25 34 32 30 32 47 0 26 -23 -15 -24 -15 -18 1 5 12 3 14 -8 8 -10 -6
-10 -3 2 11 29 35 33 49 6 25 -15 -14 -27 -19 -27 -13 0 6 4 14 10 17 5 3 15
16 21 28 12 22 11 22 -13 -1 l-25 -23 -17 41 c-21 54 -21 63 11 101 30 35 23
39 76 -38z m-283 10 c0 -2 -14 -16 -30 -30 -17 -14 -35 -35 -41 -47 -6 -11 7
-2 29 22 22 23 45 42 51 42 11 0 52 -59 65 -94 7 -20 -30 -70 -45 -61 -4 3
-11 0 -15 -6 -5 -8 -3 -9 7 -4 8 5 11 5 7 1 -3 -4 -9 -6 -11 -4 -3 2 -17 -8
-32 -22 -22 -21 -25 -22 -19 -5 7 18 6 19 -12 5 -19 -14 -19 -14 0 7 10 13 22
20 27 18 4 -3 11 0 15 6 4 8 3 9 -4 5 -18 -11 -14 5 6 28 17 21 17 21 -4 3
-21 -17 -22 -17 -28 0 -5 12 0 24 15 36 12 9 20 20 17 22 -3 3 -11 -1 -18 -10
-7 -8 -17 -15 -23 -15 -6 0 0 12 14 28 23 26 23 26 -9 -2 -32 -30 -42 -43 -21
-30 8 5 8 1 0 -14 -6 -12 -14 -23 -19 -25 -13 -9 -7 69 6 86 8 9 15 23 16 30
3 24 26 46 42 40 8 -3 14 -7 14 -10z m-2425 -212 c0 -131 2 -151 18 -169 12
-13 16 -28 12 -41 -4 -12 0 -30 9 -43 20 -28 20 -50 1 -24 -26 34 -16 4 11
-35 14 -21 24 -44 22 -51 -3 -7 -15 7 -27 30 -12 24 -25 42 -28 39 -9 -9 27
-73 70 -125 23 -28 57 -72 75 -99 18 -26 66 -95 107 -153 41 -58 75 -116 75
-129 0 -20 -2 -21 -15 -11 -8 7 -15 17 -15 22 0 5 -31 53 -69 106 -38 53 -77
113 -87 132 -13 25 -19 30 -22 18 -2 -9 6 -35 17 -57 12 -22 21 -52 21 -67 l0
-27 -25 23 c-17 16 -23 31 -20 44 3 12 2 15 -1 9 -11 -25 -24 -12 -24 23 0 20
-8 48 -19 62 -24 35 -53 92 -46 92 2 0 17 -18 31 -40 15 -22 29 -38 32 -36 2
3 -6 19 -18 36 -12 18 -31 48 -42 68 -13 26 -17 29 -13 12 6 -24 6 -25 -10 -5
-9 12 -14 29 -10 43 3 13 -3 39 -16 64 -18 36 -20 46 -9 78 9 26 9 49 2 81
l-10 44 -1 -65 c-1 -52 -4 -61 -12 -46 -6 10 -9 40 -7 67 3 27 1 49 -3 49 -5
0 -9 10 -9 23 0 18 2 19 11 7 8 -11 8 -9 3 10 -4 14 -7 51 -7 82 1 48 -1 56
-15 51 -13 -5 -12 -1 4 20 25 35 38 34 31 -3 -4 -16 -3 -30 2 -30 5 0 12 16
15 35 4 19 8 35 9 35 1 0 2 -67 2 -149z m753 66 c-7 -78 -27 -120 -70 -139
-80 -37 -123 -27 -50 11 44 24 36 27 -13 7 -41 -18 -47 -6 -7 15 15 7 35 21
45 31 15 15 15 18 2 18 -21 0 -19 17 3 24 9 4 28 16 42 27 23 18 23 19 3 9
-25 -12 -31 -2 -11 18 7 7 9 12 5 12 -4 0 -28 -20 -53 -46 -50 -48 -62 -52
-43 -11 13 29 60 66 98 77 53 16 54 15 49 -53z m989 -55 c13 -8 20 -18 17 -23
-3 -5 1 -6 9 -3 8 3 18 0 23 -7 5 -8 3 -10 -7 -5 -8 4 -4 -1 9 -12 12 -11 22
-24 22 -29 0 -4 12 -19 26 -32 19 -18 22 -26 12 -32 -9 -6 -8 -10 5 -15 9 -3
17 -14 17 -24 0 -10 7 -23 15 -30 8 -7 15 -19 15 -28 0 -8 7 -23 15 -32 8 -9
16 -26 18 -38 2 -12 6 -25 10 -28 13 -14 7 -26 -10 -20 -10 4 -4 -4 12 -18 42
-34 25 -43 -24 -12 -26 17 -41 34 -41 46 0 11 -4 20 -8 20 -11 0 -25 31 -64
135 -16 44 -41 100 -56 125 -14 25 -26 48 -25 52 2 3 -11 11 -27 17 -17 5 -30
13 -30 16 0 9 40 -5 67 -23z m882 -129 c0 -23 -3 -45 -9 -48 -5 -3 -10 -12
-10 -18 0 -7 4 -6 10 3 22 33 9 -73 -15 -131 -18 -43 -23 -65 -16 -77 8 -14
11 -12 17 13 13 54 59 143 122 238 28 42 37 46 39 17 2 -23 -60 -116 -75 -113
-11 2 -55 -97 -47 -105 3 -3 11 9 17 26 21 55 26 35 7 -24 -10 -31 -24 -83
-31 -115 -8 -37 -17 -59 -26 -59 -10 0 -11 -6 -5 -22 4 -13 7 -43 6 -68 -2
-51 -38 -144 -52 -136 -5 4 -12 -7 -16 -23 -7 -35 -53 -100 -117 -169 -68 -73
-79 -75 -25 -4 50 64 73 112 106 214 34 106 46 134 63 152 14 14 16 28 11 79
-3 34 -10 67 -15 74 -6 7 -5 32 1 66 5 30 8 87 5 127 -4 58 0 86 18 139 21 62
22 64 29 36 4 -16 7 -49 8 -72z m437 73 c-12 -47 -12 -51 -2 -28 10 23 26 30
26 12 0 -6 -7 -27 -15 -47 -14 -32 -14 -34 1 -22 13 11 14 9 9 -14 -5 -16 -3
-27 3 -27 6 0 12 -10 15 -22 2 -13 2 14 0 60 -2 45 1 82 5 82 15 0 42 -70 42
-108 -1 -39 -9 -56 -49 -110 -32 -42 -46 -41 -21 1 11 17 20 37 20 42 -1 6 -8
-2 -16 -17 -19 -36 -27 -35 -22 2 3 17 1 30 -3 30 -14 0 -19 33 -7 49 12 14
11 14 -4 3 -15 -12 -19 -9 -33 23 -20 49 -19 67 5 93 29 31 54 29 46 -2z
m-2876 -4 c0 -5 20 -34 43 -64 63 -81 74 -111 52 -144 -9 -14 -19 -23 -22 -20
-3 3 0 12 7 21 7 9 10 18 6 22 -3 3 -6 2 -6 -3 0 -13 -41 -57 -47 -51 -2 3 5
23 16 46 31 60 25 63 -9 4 -37 -65 -52 -75 -33 -22 17 51 11 61 -13 19 -10
-16 -24 -28 -31 -26 -7 3 -18 -4 -24 -15 -6 -11 -13 -18 -16 -15 -3 3 6 24 21
47 15 22 25 43 23 45 -3 3 -17 -16 -32 -41 -15 -26 -29 -44 -32 -41 -3 2 9 30
27 61 18 31 30 58 28 60 -2 3 -17 -18 -33 -45 -16 -28 -33 -50 -37 -50 -5 0
-4 9 2 19 12 24 13 34 1 27 -12 -8 -22 20 -15 39 4 8 1 15 -5 15 -6 0 -11 14
-11 30 0 35 23 41 40 10 16 -29 23 -25 55 30 28 46 45 62 45 42z m2772 -78
c-2 -18 3 -47 12 -65 9 -18 16 -39 16 -49 0 -9 4 -20 9 -25 15 -16 17 -68 4
-72 -7 -3 -13 4 -14 14 0 11 -6 6 -15 -16 -8 -18 -13 -36 -10 -39 3 -3 -2 -11
-12 -19 -9 -8 -11 -11 -3 -7 7 3 17 0 22 -7 6 -10 9 -11 9 -1 0 6 7 12 15 12
8 0 15 5 15 10 0 6 6 10 14 10 8 0 17 8 19 18 3 9 5 -5 6 -31 1 -56 -38 -255
-81 -410 -30 -112 -95 -277 -107 -277 -5 0 -20 -31 -35 -69 -15 -38 -36 -80
-46 -93 -11 -12 -24 -28 -28 -34 -5 -5 -17 -27 -27 -47 -9 -20 -21 -37 -25
-37 -5 0 -32 -29 -60 -65 -28 -36 -56 -63 -60 -60 -5 3 -12 0 -16 -6 -5 -8 -3
-9 6 -4 8 5 11 3 8 -6 -3 -8 -10 -13 -16 -12 -6 2 -9 -4 -6 -11 3 -8 -3 -19
-14 -25 -15 -8 -21 -8 -25 2 -2 7 -16 -6 -32 -28 -44 -61 -166 -166 -234 -202
-34 -17 -83 -47 -109 -66 -48 -35 -142 -81 -149 -73 -3 3 9 12 25 20 34 18 54
40 26 29 -13 -5 -15 -3 -9 8 5 8 5 11 -1 6 -5 -5 -9 -14 -9 -20 0 -7 -4 -12
-10 -12 -22 -2 -55 -17 -55 -26 0 -5 -5 -9 -10 -9 -6 0 -28 -11 -49 -25 -96
-64 -405 -112 -654 -101 -132 6 -173 13 -241 41 -15 7 -18 5 -12 -6 5 -9 3 -8
-6 2 -7 9 -19 14 -26 11 -16 -5 -64 14 -114 45 -21 13 -38 21 -38 18 0 -3 15
-14 33 -25 17 -11 28 -20 22 -20 -5 0 -25 9 -43 20 -18 11 -38 18 -43 14 -5
-3 -40 9 -77 26 -37 17 -76 33 -87 35 -51 10 -230 111 -276 156 -28 27 -47 43
-42 36 4 -6 -14 6 -40 27 -49 40 -63 65 -24 45 22 -12 22 -12 3 9 -10 12 -22
19 -26 17 -11 -7 -33 23 -37 47 -3 18 -1 19 13 7 13 -11 17 -10 26 2 8 12 9
12 5 -2 -7 -22 27 -66 38 -49 5 9 4 11 -3 6 -7 -4 -15 6 -20 26 -6 22 -15 33
-25 32 -9 -1 -14 3 -11 8 4 6 3 13 -2 17 -5 3 -20 20 -34 36 -22 26 -20 26 15
-6 22 -19 60 -50 85 -69 35 -25 30 -18 -23 31 -37 35 -67 68 -67 73 0 6 6 3
13 -5 71 -86 450 -340 582 -389 16 -6 43 -22 60 -34 46 -35 63 -41 30 -11 -22
19 -25 25 -10 20 11 -4 29 -10 40 -13 11 -3 34 -15 50 -27 46 -34 63 -40 30
-11 l-30 26 53 -20 c29 -11 67 -20 85 -20 18 0 37 -4 43 -9 12 -12 411 13 527
33 48 8 94 13 101 10 8 -3 44 6 80 21 36 14 70 24 74 21 5 -3 23 4 40 15 18
10 35 19 37 19 13 0 2 -37 -17 -59 -18 -20 -15 -19 10 4 19 17 40 43 49 58 8
16 31 35 51 44 100 41 282 180 415 317 116 119 184 225 256 401 27 66 67 163
89 216 22 52 47 122 56 155 26 102 45 304 40 420 -5 120 1 126 15 19 10 -67
10 -65 6 36 -4 81 -2 106 8 106 8 0 11 -11 9 -33z m-1554 5 c62 -6 136 -19
165 -29 l52 -19 -100 0 c-68 -1 -95 2 -85 9 13 8 13 10 -2 10 -9 0 -28 -5 -42
-11 -18 -9 -29 -9 -39 -1 -8 7 -18 7 -27 2 -8 -5 -51 -9 -95 -9 -77 0 -176
-21 -202 -43 -9 -7 -13 -7 -13 0 0 17 -68 5 -99 -17 -50 -36 -58 -22 -11 20
43 39 132 89 158 89 22 0 13 -18 -20 -39 -18 -11 -28 -21 -23 -21 6 0 26 13
45 30 34 28 78 42 64 19 -3 -6 7 -4 22 4 34 18 95 19 252 6z m-798 -33 c0 -13
4 -13 35 0 19 7 39 14 44 14 11 0 -17 -67 -111 -262 -56 -118 -77 -148 -79
-115 0 6 -3 43 -8 81 -7 67 -6 73 34 165 23 53 45 104 48 114 8 21 37 23 37 3z
m1132 -92 c40 -32 76 -63 80 -69 14 -19 -3 -18 -25 2 -27 25 -77 57 -77 50 0
-3 27 -25 61 -50 33 -25 56 -48 51 -51 -5 -3 -15 1 -22 9 -7 8 -16 15 -20 15
-14 0 54 -99 68 -99 7 -1 11 2 8 7 -2 4 2 22 9 39 l14 32 48 -32 c26 -18 48
-35 48 -39 0 -3 9 -16 20 -28 l19 -21 -29 5 c-28 6 -29 6 -6 -4 14 -6 31 -16
39 -22 12 -10 11 -13 -5 -19 -16 -7 -16 -8 0 -8 9 -1 17 -5 17 -10 0 -5 -16
-5 -37 0 -59 13 -74 9 -19 -6 27 -8 54 -19 60 -25 8 -9 5 -11 -13 -5 -16 5
-21 4 -17 -4 4 -6 15 -12 24 -13 9 -1 -12 -4 -48 -8 l-65 -7 57 -1 c65 -2 90
-21 31 -23 -34 -2 -35 -2 -8 -6 50 -7 53 -23 5 -24 -25 0 -54 -4 -65 -9 -14
-6 -5 -8 33 -8 58 1 87 -11 31 -13 -19 -1 -45 -5 -59 -9 -16 -6 -7 -7 28 -3
35 4 52 2 52 -6 0 -6 -10 -11 -22 -12 -22 -1 -22 -1 2 -9 14 -4 19 -8 11 -9
-11 -1 -11 -4 0 -17 11 -14 10 -18 -6 -30 -10 -8 -13 -14 -7 -14 23 0 -7 -40
-31 -41 -22 -2 -22 -2 1 -6 33 -6 22 -27 -16 -31 -18 -2 -32 -1 -32 3 0 3 11
23 25 45 26 42 23 50 -11 25 -10 -8 -28 -15 -39 -15 -31 -1 -107 -38 -122 -60
-8 -11 -24 -20 -36 -21 -18 0 -19 -2 -5 -7 15 -6 15 -9 -2 -29 -10 -13 -24
-23 -31 -23 -7 0 -5 -6 7 -14 18 -14 18 -15 -6 -25 l-25 -10 24 0 c17 -1 22
-4 15 -11 -7 -7 -64 -8 -165 -3 -85 5 -224 6 -309 3 -85 -3 -159 -3 -165 1 -5
4 -35 3 -65 -2 -101 -14 -165 -11 -184 10 -13 15 -14 20 -4 24 7 3 4 6 -8 6
-11 1 -29 8 -40 16 -16 13 -17 16 -4 25 8 5 11 10 5 10 -5 0 -1 7 9 15 11 8
15 15 9 15 -7 0 -11 12 -10 27 3 37 -29 44 -42 10 -9 -23 -13 -24 -47 -17 -45
10 -74 35 -31 28 15 -3 27 -1 27 3 0 5 -18 9 -39 9 -55 0 -61 18 -9 23 41 3
41 4 -9 5 -54 2 -75 21 -25 23 24 1 23 2 -7 8 -49 9 -51 29 -4 34 35 3 34 4
-10 5 -67 3 -57 25 14 33 l54 6 -62 1 c-35 1 -64 7 -64 12 -5 30 -1 35 26 41
28 6 28 7 -9 8 -51 1 -40 11 32 28 l57 13 -60 -5 c-68 -7 -66 7 5 24 l45 10
-42 -3 c-85 -7 -27 31 67 44 l55 7 -45 3 c-39 2 -42 3 -20 11 19 7 15 8 -17 4
-26 -3 -43 -1 -43 5 0 5 15 10 33 11 17 0 55 7 82 15 51 13 35 13 -62 -2 -28
-4 -43 -3 -43 4 0 11 41 24 114 37 21 3 36 9 33 12 -3 2 -31 -1 -62 -7 -31 -6
-59 -10 -61 -7 -6 6 114 47 137 47 18 0 21 -33 5 -58 -4 -7 -2 -12 7 -12 8 0
27 28 42 62 15 34 39 73 54 86 44 42 103 82 120 82 10 0 4 -7 -14 -19 -44 -27
-98 -91 -141 -168 -20 -37 -63 -93 -96 -124 -47 -45 -58 -62 -58 -88 0 -26 4
-31 25 -31 14 0 29 -8 35 -20 6 -11 18 -20 27 -20 9 0 50 -33 92 -72 73 -70
203 -153 225 -145 6 3 -15 17 -47 32 -32 15 -64 36 -71 47 -8 11 -29 30 -47
44 -39 29 -27 32 16 4 17 -11 37 -20 45 -19 8 0 -3 9 -25 20 -22 10 -53 31
-70 45 -29 24 -29 25 -5 19 14 -4 63 -24 110 -46 47 -21 111 -45 143 -54 87
-21 270 -30 342 -15 68 13 186 73 251 126 49 41 71 39 33 -3 -13 -14 -18 -23
-10 -18 7 4 12 4 9 -1 -2 -5 -13 -29 -25 -54 -11 -25 -32 -55 -47 -67 -14 -13
-26 -27 -26 -32 0 -5 -14 -14 -30 -21 -37 -15 -34 -25 4 -11 32 13 105 88 128
133 9 18 29 59 43 91 16 35 37 63 51 69 13 6 21 14 19 19 -9 14 -62 -8 -178
-74 -181 -102 -200 -108 -374 -102 -159 5 -206 14 -320 67 -51 23 -88 32 -146
36 -93 6 -113 22 -28 22 43 0 97 -12 188 -41 182 -58 301 -69 446 -40 112 22
191 55 266 109 24 17 59 34 77 38 19 3 34 10 34 15 0 10 -98 -18 -129 -38 -23
-15 -24 -14 -17 3 3 11 -7 5 -26 -16 -20 -22 -29 -27 -24 -15 6 16 1 14 -23
-9 -16 -15 -34 -25 -39 -22 -6 4 -13 2 -17 -4 -3 -5 -11 -10 -16 -10 -6 0 -2
12 9 28 37 53 33 56 -10 9 -48 -52 -59 -58 -51 -24 l6 22 -25 -22 c-30 -28
-58 -32 -37 -6 10 12 4 10 -17 -5 -43 -29 -168 -35 -207 -9 -32 21 -43 22 -27
2 17 -20 1 -19 -22 2 -18 16 -18 16 -12 -2 7 -17 5 -17 -24 4 -22 15 -32 18
-32 9 0 -7 -16 4 -35 24 -38 41 -48 37 -14 -6 37 -47 2 -27 -46 27 -26 28 -40
40 -31 25 24 -41 19 -47 -10 -13 -14 17 -23 24 -19 18 13 -27 -12 -11 -29 18
-10 17 -20 28 -23 25 -3 -3 4 -21 16 -41 24 -41 25 -45 12 -45 -6 0 -22 19
-36 43 l-26 42 7 -37 c8 -47 -1 -49 -21 -5 -15 32 -15 32 -11 4 2 -20 0 -27
-9 -23 -7 2 -18 -1 -24 -7 -6 -6 -11 -7 -11 -1 0 6 4 14 10 20 5 5 6 21 3 34
l-7 25 -6 -29 c-7 -38 -29 -47 -23 -9 l5 28 -21 -32 c-22 -35 -41 -43 -41 -17
0 9 29 43 65 76 36 34 68 71 71 83 3 13 17 32 30 44 13 11 24 25 24 31 0 5 5
10 10 10 7 0 8 -14 4 -37 -4 -21 -3 -35 0 -31 4 3 9 12 10 20 14 70 20 89 27
94 6 3 8 -22 5 -63 l-6 -68 19 70 c10 39 22 78 26 88 13 31 23 18 14 -20 -14
-64 -9 -71 10 -15 18 53 36 80 46 70 3 -3 -2 -21 -10 -41 -21 -51 -19 -152 4
-202 54 -117 222 -187 353 -148 52 15 125 79 153 134 25 48 57 180 51 208 -5
22 -3 20 14 -9 12 -22 19 -55 20 -88 0 -36 4 -51 11 -46 7 4 10 27 7 59 -4 47
-2 52 14 47 19 -5 23 -28 21 -122 -1 -33 1 -40 7 -25 5 11 10 45 11 75 1 30 4
44 6 30 5 -27 23 -52 23 -32 0 7 5 12 10 12 6 0 10 -7 10 -15 0 -8 5 -15 10
-15 6 0 10 -5 10 -10 0 -6 9 -21 20 -32 11 -12 18 -29 15 -37 -4 -12 3 -16 25
-16 17 0 30 1 30 3 0 1 -24 39 -54 85 -70 107 -167 206 -238 243 -41 21 -35
27 26 22 49 -4 62 -11 128 -64z m513 -41 c-9 -20 -19 -41 -23 -47 -4 -6 -7
-38 -6 -71 3 -79 -9 -116 -51 -154 -37 -33 -48 -81 -20 -81 8 0 15 5 15 11 0
5 -4 7 -10 4 -5 -3 -10 3 -10 14 0 18 48 66 57 57 4 -4 -27 -87 -37 -99 -10
-11 -66 18 -73 38 -9 23 0 39 34 59 31 18 89 90 89 110 0 6 -10 -6 -23 -26
-12 -20 -44 -53 -71 -74 l-49 -37 7 44 c3 24 9 68 13 96 3 29 10 50 14 47 14
-8 11 -88 -3 -104 -11 -12 -10 -12 5 -1 10 8 17 27 17 50 1 32 2 34 14 18 13
-16 16 -15 45 18 17 20 31 41 31 48 0 6 -11 -5 -25 -26 -14 -20 -30 -37 -35
-37 -20 0 -9 47 16 71 14 13 37 43 51 67 31 52 49 55 28 5z m290 -65 c-8 -68
-12 -79 -23 -61 -5 7 -35 -14 -85 -59 -57 -52 -76 -65 -74 -49 2 11 14 32 27
46 l24 25 -22 -3 c-12 -2 -28 -9 -35 -17 -10 -10 -9 -11 1 -5 23 13 -8 -30
-32 -45 -18 -11 -18 -9 3 14 15 15 19 26 12 26 -11 0 -11 3 -1 15 20 24 5 18
-16 -7 -10 -12 -13 -18 -6 -14 16 10 16 1 -1 -13 -23 -18 -17 21 7 49 16 20
14 19 -12 -4 -17 -17 -32 -26 -33 -20 0 5 -2 17 -4 27 -2 10 10 30 28 47 l31
29 30 -36 31 -35 68 76 c38 42 73 76 79 76 6 0 7 -22 3 -62z m-2824 -21 c0
-23 3 -35 7 -27 12 26 29 21 24 -7 -5 -28 14 -154 30 -193 16 -39 38 -151 38
-193 0 -27 7 -43 25 -59 38 -33 33 -49 -12 -36 -83 23 -89 30 -127 145 -45
140 -64 235 -48 241 7 2 12 13 12 25 0 16 3 18 9 9 23 -37 43 10 31 74 -5 25
-8 30 -9 15 0 -13 -4 -22 -7 -18 -10 10 6 78 17 72 5 -4 9 -25 10 -48z m539
-218 c29 -48 51 -69 30 -28 -7 11 -9 23 -7 25 4 5 37 -31 117 -126 l20 -25
-21 40 -21 40 34 -36 c18 -19 40 -41 49 -47 14 -11 16 -9 12 15 -4 23 -1 21
15 -12 l20 -40 -5 40 c-3 22 -16 64 -29 94 -28 62 -29 67 -11 53 7 -6 24 -35
36 -64 13 -29 29 -66 36 -83 8 -16 27 -75 44 -130 17 -55 36 -107 42 -115 9
-12 10 -11 4 5 -25 72 -55 171 -55 180 1 5 13 -18 27 -53 14 -35 28 -61 30
-58 3 2 0 13 -6 24 -18 33 -13 47 8 28 10 -10 24 -37 30 -62 13 -51 23 -59 15
-11 -5 29 -4 30 9 15 8 -10 16 -15 19 -12 4 3 9 1 13 -5 3 -6 1 -11 -4 -11 -6
0 -11 -7 -11 -15 0 -8 -4 -15 -10 -15 -5 0 -10 -9 -10 -21 0 -11 -4 -18 -9
-15 -5 4 -7 -3 -4 -14 3 -11 0 -20 -6 -20 -5 0 -8 -7 -5 -15 4 -8 2 -15 -3
-15 -5 0 -20 22 -33 50 -13 27 -25 48 -27 46 -3 -2 7 -27 21 -55 26 -51 33
-81 18 -81 -5 0 -14 18 -21 41 -7 23 -14 39 -17 37 -2 -3 3 -24 11 -48 19 -53
19 -53 -4 -41 -10 6 -22 23 -26 38 -10 43 -64 132 -90 149 -14 9 -25 29 -29
53 -5 33 -71 139 -109 176 -15 15 1 -13 38 -65 37 -51 65 -104 65 -120 0 -6
-20 6 -44 26 -34 28 -44 44 -44 65 1 30 -9 49 -87 154 -28 39 -62 87 -75 109
l-23 39 26 -18 c15 -9 40 -39 57 -66z m1824 -191 c4 -13 10 -76 13 -141 5 -99
8 -117 21 -112 11 4 13 0 8 -17 -3 -13 -6 -30 -6 -39 0 -8 -6 -24 -14 -34 -12
-16 -16 -17 -30 -6 -12 10 -16 10 -16 1 0 -6 9 -14 20 -17 21 -6 28 -47 10
-58 -5 -3 -10 -1 -10 4 0 6 -4 11 -10 11 -5 0 -10 -9 -10 -20 0 -11 4 -19 9
-18 9 3 11 -2 11 -24 0 -10 -2 -10 -9 0 -6 9 -12 -1 -20 -32 -6 -27 -19 -50
-31 -56 -11 -6 -20 -19 -20 -29 0 -10 -6 -24 -14 -30 -12 -10 -14 -8 -10 11 2
13 -2 7 -9 -12 -8 -19 -21 -36 -29 -38 -9 -2 -19 -17 -22 -35 -7 -35 -41 -85
-51 -75 -4 3 1 20 9 37 9 16 16 34 16 38 -1 4 -13 -15 -28 -43 -38 -71 -52
-88 -92 -113 -52 -31 -57 -26 -16 19 57 64 42 56 -24 -11 -61 -62 -100 -77
-43 -16 57 61 85 106 100 164 8 32 29 81 47 108 18 28 39 65 47 83 8 17 17 32
20 32 4 0 9 18 13 40 9 57 26 49 27 -12 2 -142 14 -128 15 17 1 88 6 174 11
190 10 30 10 29 18 -20 4 -27 6 -112 3 -190 -3 -86 -2 -123 3 -95 10 58 8 351
-3 344 -12 -8 -10 7 14 76 17 51 23 60 29 45 5 -14 8 -4 9 30 1 49 1 50 16 25
l15 -25 -5 33 c-6 36 8 44 18 10z m-1774 -67 c37 -33 42 -41 32 -54 -15 -17
-72 -133 -72 -145 0 -4 25 -16 55 -27 31 -10 60 -24 66 -32 6 -7 28 -13 48
-13 20 0 63 -13 96 -29 l60 -29 -272 -1 c-150 -1 -273 1 -273 4 0 2 15 28 33
57 37 58 88 150 136 246 17 34 35 62 39 62 4 0 27 -18 52 -39z m-480 -174 c0
-18 43 -107 52 -107 5 0 6 6 1 13 -7 11 -32 93 -33 110 0 4 4 7 9 7 5 0 13
-17 19 -37 8 -30 10 -33 11 -13 1 20 7 12 30 -35 32 -66 40 -56 15 19 -9 26
-14 50 -10 53 3 3 9 -3 12 -13 6 -16 30 -79 68 -174 3 -8 22 -39 42 -69 l36
-54 -74 7 c-84 8 -85 9 -146 126 -43 80 -69 154 -33 90 25 -44 26 -37 2 31
-37 104 -35 97 -17 75 9 -11 16 -24 16 -29z m2745 -47 c25 -49 45 -94 45 -100
0 -13 -456 -14 -465 -1 -3 5 0 30 7 55 l12 46 116 1 c63 1 126 3 140 4 14 1
30 -5 37 -14 10 -14 12 -14 19 3 5 12 3 21 -4 24 -7 2 -1 17 16 38 15 19 28
34 29 34 2 0 23 -40 48 -90z m-1678 15 c42 -10 113 -87 113 -123 0 -5 -33 -8
-72 -6 -55 2 -87 10 -130 31 -32 15 -56 33 -55 38 5 14 79 15 96 1 11 -8 13
-8 8 1 -13 21 9 22 44 1 l34 -20 -19 21 c-11 11 -15 21 -10 21 5 0 -2 7 -14
16 -13 9 -30 13 -40 9 -24 -10 -72 -12 -72 -2 0 21 53 26 117 12z m745 7 c47
-4 90 -10 94 -14 4 -4 8 -37 9 -74 3 -70 -5 -73 -25 -12 -6 21 -21 45 -33 53
-45 31 -133 8 -186 -49 l-24 -26 -229 0 c-128 0 -228 4 -228 9 0 5 -15 32 -34
60 l-34 51 196 3 c108 1 244 3 302 4 58 1 144 -2 192 -5z m-908 -119 c-3 9 -2
17 4 17 6 0 27 -30 47 -66 20 -36 39 -63 42 -60 3 3 -4 20 -16 39 -28 45 -27
47 14 34 29 -9 35 -15 35 -38 0 -18 8 -34 23 -44 106 -74 201 -146 245 -187
29 -27 58 -48 65 -45 6 2 13 17 14 33 1 20 0 22 -4 7 -6 -30 -28 -29 -56 3
-12 14 -67 59 -122 100 -155 113 -156 115 -153 137 5 31 65 35 78 4 5 -12 15
-29 22 -38 17 -19 104 -79 116 -79 15 0 23 29 16 58 l-7 27 32 -29 c17 -17 31
-39 32 -50 0 -23 38 -118 38 -100 1 6 -6 28 -15 49 -8 20 -13 39 -11 42 10 9
44 -66 55 -122 7 -33 19 -91 27 -130 8 -38 17 -81 19 -95 2 -19 4 -17 5 8 0
19 -6 64 -15 100 -33 142 -33 142 -12 131 10 -5 18 -16 18 -24 0 -8 20 -33 45
-56 30 -28 45 -50 46 -68 0 -23 1 -24 9 -6 7 19 8 19 15 2 4 -11 8 -54 9 -97
1 -50 4 -73 10 -63 5 9 6 45 4 82 l-5 66 18 -40 c26 -56 23 -105 -7 -170 -32
-68 -49 -82 -41 -34 3 19 8 43 12 54 3 11 -6 -4 -21 -32 -15 -29 -31 -53 -36
-53 -12 0 -10 13 7 53 24 58 16 57 -10 0 -34 -75 -46 -66 -19 15 13 37 23 78
23 92 -1 15 -6 3 -14 -27 -18 -75 -48 -143 -62 -143 -17 0 -17 0 7 51 11 25
19 63 19 89 l-1 45 -8 -50 c-7 -48 -43 -135 -56 -135 -4 0 -4 21 -1 48 6 44 6
45 -4 12 -19 -64 -24 -50 -24 73 0 112 -2 125 -24 161 -38 61 -48 34 -39 -115
4 -68 6 -125 3 -127 -2 -2 -9 6 -15 18 -21 40 -35 320 -16 320 16 0 90 -78
109 -115 9 -16 16 -24 17 -17 0 18 -50 90 -88 126 -51 47 -62 33 -63 -81 l-1
-98 -14 45 c-10 31 -12 66 -8 113 4 42 3 67 -3 67 -6 0 -9 -13 -7 -30 5 -45
-12 -36 -20 10 -4 24 -15 48 -28 58 -57 45 -137 126 -132 133 2 5 -10 15 -28
22 -48 20 -128 101 -128 129 l0 23 20 -25 c12 -15 18 -18 14 -7z m1575 -69
c14 16 41 22 41 9 0 -5 -20 -20 -43 -35 -24 -15 -92 -76 -152 -135 -104 -105
-121 -111 -52 -22 47 62 54 80 15 38 -52 -58 -134 -207 -177 -325 -30 -82 -52
-119 -69 -113 -7 3 3 35 28 93 55 123 49 121 -13 -4 -32 -64 -59 -106 -69
-108 -16 -3 -16 0 1 40 35 80 32 93 -4 21 -20 -40 -40 -73 -45 -73 -15 0 -12
12 10 40 11 14 20 29 20 34 0 5 -16 -12 -36 -38 -26 -34 -42 -46 -57 -44 -12
1 -28 -1 -35 -6 -16 -10 -31 2 -16 12 6 4 40 44 77 89 72 87 72 106 1 68 -23
-12 -52 -25 -65 -28 -13 -3 -20 -9 -17 -12 3 -4 31 5 61 19 29 14 57 26 61 26
11 0 -110 -145 -141 -170 -42 -33 -39 -14 6 32 43 45 52 64 25 54 -9 -3 -19
-6 -24 -6 -12 0 -70 -50 -70 -60 0 -4 14 5 31 21 52 49 69 35 19 -16 -25 -25
-46 -41 -48 -35 -2 5 -11 3 -20 -6 -24 -24 -27 -1 -8 50 14 35 24 46 58 59 23
9 39 19 36 22 -3 3 -21 -2 -42 -10 -34 -15 -60 -53 -80 -116 -3 -12 -17 -17
-45 -17 -23 0 -45 -4 -51 -7 -19 -11 -10 30 19 89 16 32 26 66 24 77 -5 19 32
89 47 89 5 0 0 -16 -11 -35 -12 -19 -18 -35 -14 -35 4 0 2 -7 -5 -15 -7 -8
-10 -15 -7 -15 9 0 101 129 103 146 1 9 31 46 67 82 35 37 70 84 77 105 8 20
18 37 22 37 5 0 -7 -31 -27 -69 -38 -76 -75 -169 -75 -188 0 -7 6 -10 14 -7 8
3 13 11 10 18 -4 11 106 160 113 152 9 -9 -38 -95 -65 -118 -17 -14 -28 -29
-25 -32 9 -9 -33 -52 -95 -98 -54 -40 -95 -94 -106 -138 -4 -16 1 -10 15 15
37 69 80 104 188 156 57 27 123 66 146 88 48 44 84 66 93 56 4 -3 -10 -38 -31
-76 -21 -38 -36 -69 -34 -69 2 0 21 27 41 59 36 59 46 101 25 101 -8 0 -8 5 1
15 7 8 18 15 25 15 7 0 31 26 53 58 57 81 82 101 52 42 -12 -25 -18 -40 -12
-35 5 6 31 52 58 103 26 50 52 92 57 92 5 0 6 -8 2 -17 -15 -39 -15 -46 1 -15
19 34 51 46 40 15 -6 -17 -5 -17 8 0 7 9 19 17 26 17 7 0 10 -7 5 -17 -4 -13
1 -11 16 6 20 22 23 22 29 7 5 -16 7 -17 19 -2z m-866 -87 c-4 -7 2 -8 18 -3
52 15 102 19 95 8 -9 -15 6 -16 21 -1 6 6 21 9 34 7 24 -3 23 -4 -6 -20 -16
-10 -25 -17 -20 -18 6 0 25 9 43 20 41 25 59 26 41 3 -13 -17 -13 -17 12 -1
25 16 39 15 39 -2 0 -4 -10 -12 -23 -17 -13 -6 -24 -18 -24 -27 0 -8 4 -13 9
-10 5 3 6 9 3 14 -3 4 2 10 10 14 9 3 15 0 15 -8 0 -21 -39 -66 -58 -67 -11 0
-12 -2 -4 -6 19 -8 14 -22 -13 -35 -14 -6 -25 -16 -25 -23 0 -14 -46 -55 -61
-55 -5 0 -8 -4 -5 -9 7 -11 -22 -37 -52 -46 -13 -4 -21 -9 -18 -12 7 -8 -13
-43 -24 -43 -15 0 -12 30 3 31 6 0 0 5 -15 11 -16 5 -28 16 -28 24 0 8 -6 15
-12 16 -7 1 12 4 42 8 l55 7 -65 1 c-62 2 -66 4 -87 37 -13 19 -23 38 -23 42
0 3 -7 15 -17 25 -15 17 -14 18 38 18 69 0 47 19 -26 21 l-50 2 50 7 50 7 -56
1 c-49 2 -58 5 -77 31 -15 21 -18 31 -9 34 6 3 1 6 -13 6 -19 1 -21 4 -11 10
20 13 252 11 244 -2z m856 -13 c-7 -9 -14 -23 -15 -33 -2 -10 6 -6 20 13 21
26 23 26 22 7 0 -12 -8 -26 -16 -31 -8 -5 -12 -11 -10 -14 3 -2 25 13 48 35
24 21 46 39 48 39 2 0 -5 -17 -17 -37 l-20 -38 28 33 c15 18 38 34 51 37 29 5
28 3 -10 -42 -31 -38 -31 -38 13 5 27 25 54 42 69 42 l24 0 -28 -29 c-15 -16
-26 -32 -24 -35 7 -11 -150 -160 -226 -213 -68 -48 -222 -133 -241 -133 -15 0
-2 20 17 26 36 11 175 101 273 176 102 78 184 148 172 148 -4 0 -26 -16 -47
-36 -22 -20 -52 -46 -68 -58 -16 -11 -64 -47 -106 -78 -42 -32 -78 -58 -82
-58 -3 0 -20 -11 -37 -24 -18 -13 -51 -33 -74 -45 -41 -20 -43 -21 -43 -3 0
22 54 100 75 108 7 3 12 11 10 17 -5 15 24 51 47 60 10 3 15 12 13 19 -5 12
31 54 85 99 14 11 18 17 10 13 -8 -4 -4 5 9 19 26 29 53 38 30 11z m-1484 -23
c49 -31 145 -152 145 -182 0 -11 4 -19 9 -19 5 0 11 -9 14 -20 7 -26 2 -25
-53 10 -25 16 -66 41 -92 55 -27 14 -48 32 -48 41 0 13 4 12 28 -4 38 -26 52
-34 52 -28 0 2 -15 14 -32 25 -57 37 -71 50 -73 70 -1 11 -10 29 -20 41 -29
32 -8 37 25 5 17 -16 40 -29 51 -30 21 -2 21 -1 3 12 -57 43 -68 52 -62 53 4
0 28 -13 53 -29z m-755 -66 c0 -3 -16 -23 -36 -45 -20 -22 -31 -40 -25 -40 6
0 11 -9 11 -20 0 -11 5 -20 10 -20 6 0 10 14 10 30 0 17 5 30 11 30 16 0 39
26 39 45 0 27 19 7 31 -34 11 -37 10 -39 -37 -99 l-49 -62 -22 26 c-18 19 -23
37 -23 77 0 44 4 56 32 84 29 30 48 41 48 28z m345 -133 c11 -8 -10 14 -48 49
-68 65 -88 95 -42 65 14 -9 29 -14 34 -12 5 3 20 -3 33 -14 14 -11 27 -17 30
-15 2 2 28 -15 58 -38 87 -67 128 -94 110 -73 -14 18 -13 18 10 11 57 -18 156
-68 193 -98 59 -46 147 -129 147 -138 0 -4 -19 -5 -42 -2 -95 10 -146 28 -222
77 -44 28 -86 51 -94 52 -36 6 -284 194 -321 244 -22 29 -13 24 54 -29 44 -36
89 -71 100 -79z"/>
</g>
</svg>
